<svg
            fill="none"
            height="64"
            viewBox="0 0 64 64"
            width="64"
            xmlns="http://www.w3.org/2000/svg"
          >
            <path
              d="M51.6925 12H12.3075C11.1652 12 10.0695 12.4757 9.26181 13.3224C8.45371 14.1697 8 15.3184 8 16.516V47.484C8 48.6816 8.45371 49.8304 9.26181 50.6776C10.0695 51.5243 11.1652 52 12.3075 52H51.6925C52.8348 52 53.9305 51.5243 54.7382 50.6776C55.5463 49.8303 56 48.6816 56 47.484V16.516C56 15.3184 55.5463 14.1696 54.7382 13.3224C53.9305 12.4757 52.8348 12 51.6925 12ZM12.3075 15.871H51.6925C51.8557 15.871 52.0123 15.9388 52.1276 16.0598C52.243 16.1808 52.3077 16.3449 52.3077 16.516V41.0327L48.3694 37.9359C47.1958 37.0183 45.7717 36.5228 44.3079 36.5228C42.8442 36.5228 41.4196 37.0183 40.2464 37.9359L35.151 41.9361V41.9356C34.9149 42.1655 34.5502 42.1655 34.314 41.9356L28.0862 34.5807C26.8834 33.1783 25.1975 32.3359 23.4008 32.2391C21.6046 32.1424 19.845 32.799 18.511 34.0649L11.6926 40.5164V16.5162C11.6926 16.1598 11.9683 15.8712 12.3079 15.8712L12.3075 15.871ZM51.6914 48.1297L12.3075 48.1292C11.968 48.1292 11.6923 47.8406 11.6923 47.4842V45.7552L20.972 36.9292C21.5667 36.3391 22.3711 36.0392 23.1874 36.1036C24.0082 36.1399 24.7801 36.521 25.329 37.1617L31.5812 44.4651L31.5816 44.4647C32.2978 45.308 33.2909 45.8377 34.3627 45.9478C35.435 46.0576 36.5072 45.74 37.366 45.0583L42.4615 41.0581C42.9939 40.6395 43.6417 40.4131 44.3076 40.4131C44.9731 40.4131 45.6209 40.6395 46.1537 41.0581L52.3074 45.8839V47.4842C52.3074 47.8406 52.0317 48.1292 51.6922 48.1292L51.6914 48.1297Z"
              fill="#939393"
            />
            <path
              d="M47.3836 23.613C47.3836 25.7506 45.7307 27.484 43.6913 27.484C41.6523 27.484 39.999 25.7506 39.999 23.613C39.999 21.4748 41.6523 19.742 43.6913 19.742C45.7307 19.742 47.3836 21.4748 47.3836 23.613Z"
              fill="#939393"
            />
          </svg>